# xmcd CD database file
#
# Track frame offsets:
#	150
#	14415
#	34516
#	47678
#	63967
#	87971
#	111413
#	128026
#	156656
#
# Disc length: 2305 seconds
#
# Revision: 0
# Processed by: cddbd v1.5.1PL0 Copyright (c) Steve Scherf et al.
# Submitted via: CDex 1.51
#
DISCID=7308ff09
DTITLE=Stan Kenton and His Orchestra - At the Ernst-Merck-Halle, Hamburg, Germany Disc 1
DYEAR=2003
DGENRE=Jazz
TTITLE0=Artistry in Rhythm
TTITLE1=Stompin' at the Savoy
TTITLE2=Collaboration
TTITLE3=Love for Sale
TTITLE4=Swing House
TTITLE5=Yesterdays
TTITLE6=Out of Nowhere
TTITLE7=Royal Blue
TTITLE8=Solitaire
EXTD=YEAR: 2003
EXTT0=
EXTT1=
EXTT2=
EXTT3=
EXTT4=
EXTT5=
EXTT6=
EXTT7=
EXTT8=
PLAYORDER=
